<mxfile modified="2021-04-30T22:14:59.008Z" host="app.diagrams.net" agent="5.0 (Macintosh; Intel Mac OS X 10_15_7) AppleWebKit/537.36 (KHTML, like Gecko) Chrome/90.0.4430.85 Safari/537.36" etag="xxvkbQNZGN-6W-wRxiEj" version="14.6.6" type="github">
  <diagram id="Ht1M8jgEwFfnCIfOTk4-" name="Page-1">
    <mxGraphModel dx="1186" dy="618" grid="1" gridSize="10" guides="1" tooltips="1" connect="1" arrows="1" fold="1" page="1" pageScale="1" pageWidth="1169" pageHeight="827" math="0" shadow="0">
      <root>
        <mxCell id="0" />
        <mxCell id="1" parent="0" />
        <mxCell id="PjIFf0Byjaj_l79i6JgZ-12" value="" style="group" vertex="1" connectable="0" parent="1">
          <mxGeometry x="20" y="50" width="550" height="260" as="geometry" />
        </mxCell>
        <mxCell id="PjIFf0Byjaj_l79i6JgZ-8" value="" style="rounded=0;whiteSpace=wrap;html=1;" vertex="1" parent="PjIFf0Byjaj_l79i6JgZ-12">
          <mxGeometry x="275" width="275" height="259.99999999999994" as="geometry" />
        </mxCell>
        <mxCell id="PjIFf0Byjaj_l79i6JgZ-7" value="" style="rounded=0;whiteSpace=wrap;html=1;" vertex="1" parent="PjIFf0Byjaj_l79i6JgZ-12">
          <mxGeometry y="19.724137931034484" width="172.8571428571428" height="179.31034482758616" as="geometry" />
        </mxCell>
        <mxCell id="UEzPUAAOIrF-is8g5C7q-136" value="deploy" style="edgeStyle=orthogonalEdgeStyle;rounded=0;orthogonalLoop=1;jettySize=auto;html=1;startArrow=open;startFill=0;endArrow=open;endFill=0;strokeWidth=2;strokeColor=#808080;" parent="PjIFf0Byjaj_l79i6JgZ-12" target="PjIFf0Byjaj_l79i6JgZ-8" edge="1">
          <mxGeometry relative="1" as="geometry">
            <Array as="points">
              <mxPoint x="275" y="118.34482758620688" />
              <mxPoint x="275" y="118.34482758620688" />
            </Array>
            <mxPoint x="186.99999999999997" y="118.34482758620688" as="sourcePoint" />
          </mxGeometry>
        </mxCell>
        <mxCell id="UEzPUAAOIrF-is8g5C7q-109" value="data lake CLI" style="outlineConnect=0;gradientColor=none;fontColor=#545B64;strokeColor=none;fillColor=#879196;dashed=0;verticalLabelPosition=bottom;verticalAlign=top;align=center;html=1;fontSize=12;fontStyle=0;aspect=fixed;shape=mxgraph.aws4.illustration_desktop;pointerEvents=1;labelBackgroundColor=#ffffff;" parent="PjIFf0Byjaj_l79i6JgZ-12" vertex="1">
          <mxGeometry x="39.285714285714285" y="68.58620689655172" width="75.82417582417581" height="69" as="geometry" />
        </mxCell>
        <mxCell id="UEzPUAAOIrF-is8g5C7q-116" value="Amazon S3" style="outlineConnect=0;fontColor=#232F3E;gradientColor=#60A337;gradientDirection=north;fillColor=#277116;strokeColor=#ffffff;dashed=0;verticalLabelPosition=bottom;verticalAlign=top;align=center;html=1;fontSize=12;fontStyle=0;aspect=fixed;shape=mxgraph.aws4.resourceIcon;resIcon=mxgraph.aws4.s3;labelBackgroundColor=#ffffff;" parent="PjIFf0Byjaj_l79i6JgZ-12" vertex="1">
          <mxGeometry x="388.9285714285716" y="17.931034482758616" width="59.14285714285714" height="59.14285714285714" as="geometry" />
        </mxCell>
        <mxCell id="UEzPUAAOIrF-is8g5C7q-119" value="Amazon&lt;br&gt;DynamoDB&lt;br&gt;" style="outlineConnect=0;fontColor=#232F3E;gradientColor=#4D72F3;gradientDirection=north;fillColor=#3334B9;strokeColor=#ffffff;dashed=0;verticalLabelPosition=bottom;verticalAlign=top;align=center;html=1;fontSize=12;fontStyle=0;aspect=fixed;shape=mxgraph.aws4.resourceIcon;resIcon=mxgraph.aws4.dynamodb;labelBackgroundColor=#ffffff;spacingTop=5;" parent="PjIFf0Byjaj_l79i6JgZ-12" vertex="1">
          <mxGeometry x="479.28571428571445" y="17.931034482758616" width="59.14285714285714" height="59.14285714285714" as="geometry" />
        </mxCell>
        <mxCell id="UEzPUAAOIrF-is8g5C7q-122" value="IAM Roles" style="outlineConnect=0;fontColor=#232F3E;gradientColor=none;fillColor=#C7131F;strokeColor=none;dashed=0;verticalLabelPosition=bottom;verticalAlign=top;align=center;html=1;fontSize=12;fontStyle=0;aspect=fixed;pointerEvents=1;shape=mxgraph.aws4.role;labelBackgroundColor=#ffffff;" parent="PjIFf0Byjaj_l79i6JgZ-12" vertex="1">
          <mxGeometry x="479.28571428571445" y="170.3448275862069" width="59.14285714285714" height="33.362637362637365" as="geometry" />
        </mxCell>
        <mxCell id="PjIFf0Byjaj_l79i6JgZ-9" value="Amazon API Gateway" style="outlineConnect=0;fontColor=#232F3E;gradientColor=none;strokeColor=#ffffff;fillColor=#232F3E;dashed=0;verticalLabelPosition=middle;verticalAlign=bottom;align=center;html=1;whiteSpace=wrap;fontSize=10;fontStyle=1;spacing=3;shape=mxgraph.aws4.productIcon;prIcon=mxgraph.aws4.api_gateway;" vertex="1" parent="PjIFf0Byjaj_l79i6JgZ-12">
          <mxGeometry x="290.7142857142856" y="17.931034482758616" width="62.857142857142854" height="98.62068965517238" as="geometry" />
        </mxCell>
        <mxCell id="PjIFf0Byjaj_l79i6JgZ-10" value="Lambda Function" style="outlineConnect=0;fontColor=#232F3E;gradientColor=none;strokeColor=#232F3E;fillColor=#ffffff;dashed=0;verticalLabelPosition=bottom;verticalAlign=top;align=center;html=1;fontSize=12;fontStyle=0;aspect=fixed;shape=mxgraph.aws4.resourceIcon;resIcon=mxgraph.aws4.lambda_function;" vertex="1" parent="PjIFf0Byjaj_l79i6JgZ-12">
          <mxGeometry x="295.4285714285714" y="143.44827586206893" width="60.65934065934065" height="60.65934065934065" as="geometry" />
        </mxCell>
        <mxCell id="PjIFf0Byjaj_l79i6JgZ-11" value="Amazon Cloudfront" style="outlineConnect=0;fontColor=#232F3E;gradientColor=none;strokeColor=#ffffff;fillColor=#232F3E;dashed=0;verticalLabelPosition=middle;verticalAlign=bottom;align=center;html=1;whiteSpace=wrap;fontSize=10;fontStyle=1;spacing=3;shape=mxgraph.aws4.productIcon;prIcon=mxgraph.aws4.cloudfront;" vertex="1" parent="PjIFf0Byjaj_l79i6JgZ-12">
          <mxGeometry x="387.3571428571428" y="150.62068965517238" width="62.857142857142854" height="98.62068965517238" as="geometry" />
        </mxCell>
        <mxCell id="PjIFf0Byjaj_l79i6JgZ-24" value="Services Interacted with for each Command" style="text;html=1;align=center;verticalAlign=middle;resizable=0;points=[];autosize=1;strokeColor=none;" vertex="1" parent="1">
          <mxGeometry x="420" y="10" width="250" height="20" as="geometry" />
        </mxCell>
        <mxCell id="PjIFf0Byjaj_l79i6JgZ-26" value="" style="group" vertex="1" connectable="0" parent="1">
          <mxGeometry x="20" y="360" width="550" height="260" as="geometry" />
        </mxCell>
        <mxCell id="PjIFf0Byjaj_l79i6JgZ-27" value="" style="rounded=0;whiteSpace=wrap;html=1;" vertex="1" parent="PjIFf0Byjaj_l79i6JgZ-26">
          <mxGeometry x="275" width="275" height="259.99999999999994" as="geometry" />
        </mxCell>
        <mxCell id="PjIFf0Byjaj_l79i6JgZ-28" value="" style="rounded=0;whiteSpace=wrap;html=1;" vertex="1" parent="PjIFf0Byjaj_l79i6JgZ-26">
          <mxGeometry y="19.724137931034484" width="172.8571428571428" height="179.31034482758616" as="geometry" />
        </mxCell>
        <mxCell id="PjIFf0Byjaj_l79i6JgZ-29" value="teardown" style="edgeStyle=orthogonalEdgeStyle;rounded=0;orthogonalLoop=1;jettySize=auto;html=1;startArrow=open;startFill=0;endArrow=open;endFill=0;strokeWidth=2;strokeColor=#808080;" edge="1" parent="PjIFf0Byjaj_l79i6JgZ-26" target="PjIFf0Byjaj_l79i6JgZ-27">
          <mxGeometry relative="1" as="geometry">
            <Array as="points">
              <mxPoint x="275" y="118.34482758620688" />
              <mxPoint x="275" y="118.34482758620688" />
            </Array>
            <mxPoint x="186.99999999999997" y="118.34482758620688" as="sourcePoint" />
          </mxGeometry>
        </mxCell>
        <mxCell id="PjIFf0Byjaj_l79i6JgZ-30" value="data lake CLI" style="outlineConnect=0;gradientColor=none;fontColor=#545B64;strokeColor=none;fillColor=#879196;dashed=0;verticalLabelPosition=bottom;verticalAlign=top;align=center;html=1;fontSize=12;fontStyle=0;aspect=fixed;shape=mxgraph.aws4.illustration_desktop;pointerEvents=1;labelBackgroundColor=#ffffff;" vertex="1" parent="PjIFf0Byjaj_l79i6JgZ-26">
          <mxGeometry x="39.285714285714285" y="68.58620689655172" width="75.82417582417581" height="69" as="geometry" />
        </mxCell>
        <mxCell id="PjIFf0Byjaj_l79i6JgZ-31" value="Amazon S3" style="outlineConnect=0;fontColor=#232F3E;gradientColor=#60A337;gradientDirection=north;fillColor=#277116;strokeColor=#ffffff;dashed=0;verticalLabelPosition=bottom;verticalAlign=top;align=center;html=1;fontSize=12;fontStyle=0;aspect=fixed;shape=mxgraph.aws4.resourceIcon;resIcon=mxgraph.aws4.s3;labelBackgroundColor=#ffffff;" vertex="1" parent="PjIFf0Byjaj_l79i6JgZ-26">
          <mxGeometry x="388.9285714285716" y="17.931034482758616" width="59.14285714285714" height="59.14285714285714" as="geometry" />
        </mxCell>
        <mxCell id="PjIFf0Byjaj_l79i6JgZ-32" value="Amazon&lt;br&gt;DynamoDB&lt;br&gt;" style="outlineConnect=0;fontColor=#232F3E;gradientColor=#4D72F3;gradientDirection=north;fillColor=#3334B9;strokeColor=#ffffff;dashed=0;verticalLabelPosition=bottom;verticalAlign=top;align=center;html=1;fontSize=12;fontStyle=0;aspect=fixed;shape=mxgraph.aws4.resourceIcon;resIcon=mxgraph.aws4.dynamodb;labelBackgroundColor=#ffffff;spacingTop=5;" vertex="1" parent="PjIFf0Byjaj_l79i6JgZ-26">
          <mxGeometry x="479.28571428571445" y="17.931034482758616" width="59.14285714285714" height="59.14285714285714" as="geometry" />
        </mxCell>
        <mxCell id="PjIFf0Byjaj_l79i6JgZ-33" value="IAM Roles" style="outlineConnect=0;fontColor=#232F3E;gradientColor=none;fillColor=#C7131F;strokeColor=none;dashed=0;verticalLabelPosition=bottom;verticalAlign=top;align=center;html=1;fontSize=12;fontStyle=0;aspect=fixed;pointerEvents=1;shape=mxgraph.aws4.role;labelBackgroundColor=#ffffff;" vertex="1" parent="PjIFf0Byjaj_l79i6JgZ-26">
          <mxGeometry x="479.28571428571445" y="170.3448275862069" width="59.14285714285714" height="33.362637362637365" as="geometry" />
        </mxCell>
        <mxCell id="PjIFf0Byjaj_l79i6JgZ-34" value="Amazon API Gateway" style="outlineConnect=0;fontColor=#232F3E;gradientColor=none;strokeColor=#ffffff;fillColor=#232F3E;dashed=0;verticalLabelPosition=middle;verticalAlign=bottom;align=center;html=1;whiteSpace=wrap;fontSize=10;fontStyle=1;spacing=3;shape=mxgraph.aws4.productIcon;prIcon=mxgraph.aws4.api_gateway;" vertex="1" parent="PjIFf0Byjaj_l79i6JgZ-26">
          <mxGeometry x="290.7142857142856" y="17.931034482758616" width="62.857142857142854" height="98.62068965517238" as="geometry" />
        </mxCell>
        <mxCell id="PjIFf0Byjaj_l79i6JgZ-35" value="Lambda Function" style="outlineConnect=0;fontColor=#232F3E;gradientColor=none;strokeColor=#232F3E;fillColor=#ffffff;dashed=0;verticalLabelPosition=bottom;verticalAlign=top;align=center;html=1;fontSize=12;fontStyle=0;aspect=fixed;shape=mxgraph.aws4.resourceIcon;resIcon=mxgraph.aws4.lambda_function;" vertex="1" parent="PjIFf0Byjaj_l79i6JgZ-26">
          <mxGeometry x="295.4285714285714" y="143.44827586206893" width="60.65934065934065" height="60.65934065934065" as="geometry" />
        </mxCell>
        <mxCell id="PjIFf0Byjaj_l79i6JgZ-36" value="Amazon Cloudfront" style="outlineConnect=0;fontColor=#232F3E;gradientColor=none;strokeColor=#ffffff;fillColor=#232F3E;dashed=0;verticalLabelPosition=middle;verticalAlign=bottom;align=center;html=1;whiteSpace=wrap;fontSize=10;fontStyle=1;spacing=3;shape=mxgraph.aws4.productIcon;prIcon=mxgraph.aws4.cloudfront;" vertex="1" parent="PjIFf0Byjaj_l79i6JgZ-26">
          <mxGeometry x="387.3571428571428" y="150.62068965517238" width="62.857142857142854" height="98.62068965517238" as="geometry" />
        </mxCell>
        <mxCell id="PjIFf0Byjaj_l79i6JgZ-37" value="" style="group" vertex="1" connectable="0" parent="1">
          <mxGeometry x="600" y="50" width="550" height="260" as="geometry" />
        </mxCell>
        <mxCell id="PjIFf0Byjaj_l79i6JgZ-38" value="" style="rounded=0;whiteSpace=wrap;html=1;" vertex="1" parent="PjIFf0Byjaj_l79i6JgZ-37">
          <mxGeometry x="275" width="275" height="259.99999999999994" as="geometry" />
        </mxCell>
        <mxCell id="PjIFf0Byjaj_l79i6JgZ-39" value="" style="rounded=0;whiteSpace=wrap;html=1;" vertex="1" parent="PjIFf0Byjaj_l79i6JgZ-37">
          <mxGeometry y="19.724137931034484" width="172.8571428571428" height="179.31034482758616" as="geometry" />
        </mxCell>
        <mxCell id="PjIFf0Byjaj_l79i6JgZ-40" value="update" style="edgeStyle=orthogonalEdgeStyle;rounded=0;orthogonalLoop=1;jettySize=auto;html=1;startArrow=open;startFill=0;endArrow=open;endFill=0;strokeWidth=2;strokeColor=#808080;" edge="1" parent="PjIFf0Byjaj_l79i6JgZ-37" target="PjIFf0Byjaj_l79i6JgZ-38">
          <mxGeometry relative="1" as="geometry">
            <Array as="points">
              <mxPoint x="275" y="118.34482758620688" />
              <mxPoint x="275" y="118.34482758620688" />
            </Array>
            <mxPoint x="186.99999999999997" y="118.34482758620688" as="sourcePoint" />
          </mxGeometry>
        </mxCell>
        <mxCell id="PjIFf0Byjaj_l79i6JgZ-41" value="data lake CLI" style="outlineConnect=0;gradientColor=none;fontColor=#545B64;strokeColor=none;fillColor=#879196;dashed=0;verticalLabelPosition=bottom;verticalAlign=top;align=center;html=1;fontSize=12;fontStyle=0;aspect=fixed;shape=mxgraph.aws4.illustration_desktop;pointerEvents=1;labelBackgroundColor=#ffffff;" vertex="1" parent="PjIFf0Byjaj_l79i6JgZ-37">
          <mxGeometry x="39.285714285714285" y="68.58620689655172" width="75.82417582417581" height="69" as="geometry" />
        </mxCell>
        <mxCell id="PjIFf0Byjaj_l79i6JgZ-42" value="Amazon S3" style="outlineConnect=0;fontColor=#232F3E;gradientColor=#60A337;gradientDirection=north;fillColor=#277116;strokeColor=#ffffff;dashed=0;verticalLabelPosition=bottom;verticalAlign=top;align=center;html=1;fontSize=12;fontStyle=0;aspect=fixed;shape=mxgraph.aws4.resourceIcon;resIcon=mxgraph.aws4.s3;labelBackgroundColor=#ffffff;" vertex="1" parent="PjIFf0Byjaj_l79i6JgZ-37">
          <mxGeometry x="388.9285714285716" y="17.931034482758616" width="59.14285714285714" height="59.14285714285714" as="geometry" />
        </mxCell>
        <mxCell id="PjIFf0Byjaj_l79i6JgZ-43" value="Amazon&lt;br&gt;DynamoDB&lt;br&gt;" style="outlineConnect=0;fontColor=#232F3E;gradientColor=#4D72F3;gradientDirection=north;fillColor=#3334B9;strokeColor=#ffffff;dashed=0;verticalLabelPosition=bottom;verticalAlign=top;align=center;html=1;fontSize=12;fontStyle=0;aspect=fixed;shape=mxgraph.aws4.resourceIcon;resIcon=mxgraph.aws4.dynamodb;labelBackgroundColor=#ffffff;spacingTop=5;" vertex="1" parent="PjIFf0Byjaj_l79i6JgZ-37">
          <mxGeometry x="479.28571428571445" y="17.931034482758616" width="59.14285714285714" height="59.14285714285714" as="geometry" />
        </mxCell>
        <mxCell id="PjIFf0Byjaj_l79i6JgZ-44" value="IAM Roles" style="outlineConnect=0;fontColor=#232F3E;gradientColor=none;fillColor=#C7131F;strokeColor=none;dashed=0;verticalLabelPosition=bottom;verticalAlign=top;align=center;html=1;fontSize=12;fontStyle=0;aspect=fixed;pointerEvents=1;shape=mxgraph.aws4.role;labelBackgroundColor=#ffffff;" vertex="1" parent="PjIFf0Byjaj_l79i6JgZ-37">
          <mxGeometry x="479.28571428571445" y="170.3448275862069" width="59.14285714285714" height="33.362637362637365" as="geometry" />
        </mxCell>
        <mxCell id="PjIFf0Byjaj_l79i6JgZ-45" value="Amazon API Gateway" style="outlineConnect=0;fontColor=#232F3E;gradientColor=none;strokeColor=#ffffff;fillColor=#232F3E;dashed=0;verticalLabelPosition=middle;verticalAlign=bottom;align=center;html=1;whiteSpace=wrap;fontSize=10;fontStyle=1;spacing=3;shape=mxgraph.aws4.productIcon;prIcon=mxgraph.aws4.api_gateway;" vertex="1" parent="PjIFf0Byjaj_l79i6JgZ-37">
          <mxGeometry x="290.7142857142856" y="17.931034482758616" width="62.857142857142854" height="98.62068965517238" as="geometry" />
        </mxCell>
        <mxCell id="PjIFf0Byjaj_l79i6JgZ-46" value="Lambda Function" style="outlineConnect=0;fontColor=#232F3E;gradientColor=none;strokeColor=#232F3E;fillColor=#ffffff;dashed=0;verticalLabelPosition=bottom;verticalAlign=top;align=center;html=1;fontSize=12;fontStyle=0;aspect=fixed;shape=mxgraph.aws4.resourceIcon;resIcon=mxgraph.aws4.lambda_function;" vertex="1" parent="PjIFf0Byjaj_l79i6JgZ-37">
          <mxGeometry x="295.4285714285714" y="143.44827586206893" width="60.65934065934065" height="60.65934065934065" as="geometry" />
        </mxCell>
        <mxCell id="PjIFf0Byjaj_l79i6JgZ-47" value="Amazon Cloudfront" style="outlineConnect=0;fontColor=#232F3E;gradientColor=none;strokeColor=#ffffff;fillColor=#232F3E;dashed=0;verticalLabelPosition=middle;verticalAlign=bottom;align=center;html=1;whiteSpace=wrap;fontSize=10;fontStyle=1;spacing=3;shape=mxgraph.aws4.productIcon;prIcon=mxgraph.aws4.cloudfront;" vertex="1" parent="PjIFf0Byjaj_l79i6JgZ-37">
          <mxGeometry x="387.3571428571428" y="150.62068965517238" width="62.857142857142854" height="98.62068965517238" as="geometry" />
        </mxCell>
        <mxCell id="PjIFf0Byjaj_l79i6JgZ-48" value="" style="group" vertex="1" connectable="0" parent="1">
          <mxGeometry x="600" y="360" width="550" height="260" as="geometry" />
        </mxCell>
        <mxCell id="PjIFf0Byjaj_l79i6JgZ-49" value="" style="rounded=0;whiteSpace=wrap;html=1;" vertex="1" parent="PjIFf0Byjaj_l79i6JgZ-48">
          <mxGeometry x="275" width="275" height="259.99999999999994" as="geometry" />
        </mxCell>
        <mxCell id="PjIFf0Byjaj_l79i6JgZ-50" value="" style="rounded=0;whiteSpace=wrap;html=1;" vertex="1" parent="PjIFf0Byjaj_l79i6JgZ-48">
          <mxGeometry y="19.724137931034484" width="172.8571428571428" height="179.31034482758616" as="geometry" />
        </mxCell>
        <mxCell id="PjIFf0Byjaj_l79i6JgZ-51" value="init" style="edgeStyle=orthogonalEdgeStyle;rounded=0;orthogonalLoop=1;jettySize=auto;html=1;startArrow=open;startFill=0;endArrow=open;endFill=0;strokeWidth=2;strokeColor=#808080;" edge="1" parent="PjIFf0Byjaj_l79i6JgZ-48" target="PjIFf0Byjaj_l79i6JgZ-49">
          <mxGeometry relative="1" as="geometry">
            <Array as="points">
              <mxPoint x="275" y="118.34482758620688" />
              <mxPoint x="275" y="118.34482758620688" />
            </Array>
            <mxPoint x="186.99999999999997" y="118.34482758620688" as="sourcePoint" />
          </mxGeometry>
        </mxCell>
        <mxCell id="PjIFf0Byjaj_l79i6JgZ-52" value="data lake CLI" style="outlineConnect=0;gradientColor=none;fontColor=#545B64;strokeColor=none;fillColor=#879196;dashed=0;verticalLabelPosition=bottom;verticalAlign=top;align=center;html=1;fontSize=12;fontStyle=0;aspect=fixed;shape=mxgraph.aws4.illustration_desktop;pointerEvents=1;labelBackgroundColor=#ffffff;" vertex="1" parent="PjIFf0Byjaj_l79i6JgZ-48">
          <mxGeometry x="39.285714285714285" y="68.58620689655172" width="75.82417582417581" height="69" as="geometry" />
        </mxCell>
        <mxCell id="PjIFf0Byjaj_l79i6JgZ-54" value="Amazon&lt;br&gt;DynamoDB&lt;br&gt;" style="outlineConnect=0;fontColor=#232F3E;gradientColor=#4D72F3;gradientDirection=north;fillColor=#3334B9;strokeColor=#ffffff;dashed=0;verticalLabelPosition=bottom;verticalAlign=top;align=center;html=1;fontSize=12;fontStyle=0;aspect=fixed;shape=mxgraph.aws4.resourceIcon;resIcon=mxgraph.aws4.dynamodb;labelBackgroundColor=#ffffff;spacingTop=5;" vertex="1" parent="PjIFf0Byjaj_l79i6JgZ-48">
          <mxGeometry x="379.9957142857144" y="73.51103448275862" width="59.14285714285714" height="59.14285714285714" as="geometry" />
        </mxCell>
      </root>
    </mxGraphModel>
  </diagram>
</mxfile>
